<svg xmlns="http://www.w3.org/2000/svg" width="512" height="512" viewBox="0 0 512 512">
  <defs>
    <linearGradient id="bg" x1="0%" y1="0%" x2="100%" y2="100%">
      <stop offset="0%" style="stop-color:#34d399"/>
      <stop offset="100%" style="stop-color:#059669"/>
    </linearGradient>
    <linearGradient id="ear" x1="0%" y1="0%" x2="0%" y2="100%">
      <stop offset="0%" style="stop-color:#fce7f3"/>
      <stop offset="100%" style="stop-color:#fbcfe8"/>
    </linearGradient>
  </defs>
  <rect width="512" height="512" rx="100" fill="url(#bg)"/>
  <!-- Rabbit silhouette -->
  <g transform="translate(256, 260)">
    <!-- Ears -->
    <path d="M-58,-210 C-58,-290 -37,-340 -22,-340 C-7,-340 4,-290 4,-210" fill="white" stroke="#e5e7eb" stroke-width="4"/>
    <path d="M-48,-210 C-48,-278 -32,-322 -22,-322 C-12,-322 -2,-278 -2,-210" fill="url(#ear)"/>
    <path d="M58,-210 C58,-290 37,-340 22,-340 C7,-340 -4,-290 -4,-210" fill="white" stroke="#e5e7eb" stroke-width="4"/>
    <path d="M48,-210 C48,-278 32,-322 22,-322 C12,-322 2,-278 2,-210" fill="url(#ear)"/>
    <!-- Head -->
    <ellipse cx="0" cy="-92" rx="100" ry="92" fill="white" stroke="#e5e7eb" stroke-width="4"/>
    <!-- Eyes -->
    <ellipse cx="-36" cy="-105" rx="13" ry="14" fill="#1f2937"/>
    <ellipse cx="-36" cy="-105" rx="5" ry="5" fill="white" opacity="0.8"/>
    <ellipse cx="36" cy="-105" rx="13" ry="14" fill="#1f2937"/>
    <ellipse cx="36" cy="-105" rx="5" ry="5" fill="white" opacity="0.8"/>
    <!-- Nose -->
    <path d="M-8,-78 L0,-70 L8,-78" fill="#fca5a5" stroke="#f87171" stroke-width="1.5" stroke-linejoin="round"/>
    <!-- Mouth -->
    <path d="M0,-70 Q-10,-58 0,-52 Q10,-58 0,-70" fill="none" stroke="#9ca3af" stroke-width="3" stroke-linecap="round"/>
    <!-- Cheeks -->
    <circle cx="-58" cy="-78" r="10" fill="#fce7f3" opacity="0.5"/>
    <circle cx="58" cy="-78" r="10" fill="#fce7f3" opacity="0.5"/>
    <!-- Body -->
    <ellipse cx="0" cy="48" rx="85" ry="58" fill="white" stroke="#e5e7eb" stroke-width="4"/>
    <!-- Book -->
    <g transform="translate(0, 10)">
      <rect x="-42" y="-6" width="84" height="64" rx="8" fill="#fef3c7" stroke="#d97706" stroke-width="4"/>
      <line x1="0" y1="-3" x2="0" y2="55" stroke="#d97706" stroke-width="2.5" opacity="0.4"/>
      <line x1="-26" y1="10" x2="-8" y2="10" stroke="#d97706" stroke-width="4" stroke-linecap="round"/>
      <line x1="-26" y1="24" x2="-8" y2="24" stroke="#d97706" stroke-width="4" stroke-linecap="round"/>
      <line x1="-26" y1="38" x2="-8" y2="38" stroke="#d97706" stroke-width="4" stroke-linecap="round"/>
      <line x1="8" y1="10" x2="26" y2="10" stroke="#d97706" stroke-width="4" stroke-linecap="round"/>
      <line x1="8" y1="24" x2="26" y2="24" stroke="#d97706" stroke-width="4" stroke-linecap="round"/>
      <line x1="8" y1="38" x2="26" y2="38" stroke="#d97706" stroke-width="4" stroke-linecap="round"/>
    </g>
    <!-- Paws over book -->
    <ellipse cx="-36" cy="42" rx="16" ry="10" fill="white" stroke="#e5e7eb" stroke-width="2.5"/>
    <ellipse cx="36" cy="42" rx="16" ry="10" fill="white" stroke="#e5e7eb" stroke-width="2.5"/>
  </g>
</svg>